<svg width="466" height="200" viewBox="0 0 466 432" fill="none" xmlns="http://www.w3.org/2000/svg">
<path d="M449.636 217.718C449.636 336.063 348.982 432 224.818 432C100.654 432 0 336.063 0 217.718C0 99.3729 100.654 3.43535 224.818 3.43535C348.982 3.43535 483.727 -44.4962 449.636 217.718Z" fill="url(#paint0_linear)"/>
<path d="M178.125 118L192.25 188.125L193.25 258H194.5L199.875 220.375L206.25 183H234.5L241.625 220.375L248.125 258H249.375L249.125 188.375L261.875 120.5H298.25L264.75 308H233.125L225.5 270.5L220.5 226.75L215.375 270.5L207.625 308H176.375C173.375 288.25 170.417 269.792 167.5 252.625C164.583 235.458 161.708 219.25 158.875 204C156.042 188.667 153.25 174.125 150.5 160.375C147.833 146.625 145.208 133.333 142.625 120.5L178.125 118ZM291.723 285.125C291.723 281.708 292.348 278.5 293.598 275.5C294.931 272.5 296.723 269.875 298.973 267.625C301.223 265.375 303.806 263.625 306.723 262.375C309.723 261.042 312.931 260.375 316.348 260.375C319.764 260.375 322.973 261.042 325.973 262.375C328.973 263.625 331.598 265.375 333.848 267.625C336.098 269.875 337.848 272.5 339.098 275.5C340.431 278.5 341.098 281.708 341.098 285.125C341.098 288.542 340.431 291.792 339.098 294.875C337.848 297.875 336.098 300.5 333.848 302.75C331.681 305 329.098 306.792 326.098 308.125C323.098 309.458 319.931 310.125 316.598 310.125C313.181 310.125 309.931 309.458 306.848 308.125C303.848 306.792 301.223 305 298.973 302.75C296.723 300.5 294.931 297.875 293.598 294.875C292.348 291.792 291.723 288.542 291.723 285.125Z" fill="#1F344A"/>
<defs>
<linearGradient id="paint0_linear" x1="227.5" y1="0" x2="227.5" y2="432" gradientUnits="userSpaceOnUse">
<stop stop-color="#00FF83"/>
<stop offset="1" stop-color="#00E676"/>
</linearGradient>
</defs>
</svg>
